<svg xmlns="http://www.w3.org/2000/svg" version="1.1" xmlns:xlink="http://www.w3.org/1999/xlink" xmlns:svgjs="http://svgjs.dev/svgjs" width="1000" height="1125" viewBox="0 0 1000 1125"><g transform="matrix(1,0,0,1,1.7053025658242404e-13,0)"><svg viewBox="0 0 320 360" data-background-color="#fdf8f1" preserveAspectRatio="xMidYMid meet" height="1125" width="1000" xmlns="http://www.w3.org/2000/svg" xmlns:xlink="http://www.w3.org/1999/xlink"><g id="tight-bounds" transform="matrix(1,0,0,1,0,0)"><svg viewBox="0 0 320 360" height="360" width="320"><g><svg></svg></g><g><svg viewBox="0 0 320 360" height="360" width="320"><g><path xmlns="http://www.w3.org/2000/svg" d="M20.961 227.22l3.726 4.658-1.863-6.056c-0.466-2.795-3.726 0.466-1.863 1.398M25.153 224.425c1.397 2.329 2.795 4.658 2.795 6.987 0 3.261 2.795 4.658 5.123 5.589-3.261-3.726-5.124-13.974-7.918-12.576M204.017 26.929c7.918 0 15.371-0.932 23.756 0.931 20.495 5.124 37.729 15.371 49.374 29.811l32.606 52.169c1.397 13.042 4.192 27.482 3.726 43.319 3.261 0 2.795-4.658 6.521-5.59-3.726 9.316-5.59 20.961-6.521 34.469-2.329-7.453 0-18.632 0.466-24.687-3.261 5.124-5.124 1.397-5.124-0.932 0.466-3.726-1.397-3.261-2.795-4.658-5.124-4.658-8.384-9.782-12.11-17.7 2.329-6.055 2.795-14.905-4.658-19.563-2.329-1.397-5.124-3.726-6.521-7.453-1.863-5.124-5.124-11.179-4.193-19.097 0.466-2.329-6.987 5.124-11.179 1.863-18.166-12.576-36.332-27.016-58.224-39.127-11.645 0-20.029-4.192-24.221-9.316-3.726-4.658-0.932-10.713 4.658-11.179 3.261 0 6.987-0.932 9.782 0.932 0.466-1.863 2.329-4.192 4.657-4.192M157.904 16.215l0.932 0.466c4.658 0.932 6.987 7.453 12.11 5.124 0 3.261 0.466 6.521-0.466 8.85-1.397 3.726-5.59 3.726-8.85 3.726-31.208-1.863-49.374 11.179-68.471 22.358-5.124 3.261-10.713 5.59-14.906 9.782-20.029 18.632-41.921 35.866-47.045 70.335l-4.192 38.195c-0.466 4.192-5.124 8.384-4.192 13.508l3.26 22.824c-3.261-3.261-5.124 0.932-4.192 2.795 0.466 1.397 2.329 6.055 5.124 1.863 3.726 6.987 7.453 20.495 12.576 26.55 15.837 18.632 36.332 35.4 53.101 52.169 4.192-0.932 7.453-0.932 8.384-3.727 1.397 2.795-1.397 5.59-3.726 6.056 7.453 4.658 15.837 8.85 27.016 9.781 14.44 0.932 27.948 3.261 40.524 6.522 6.521-1.863 13.042-2.795 20.029-3.261 2.329 0 3.726-3.726 6.521-4.658l0.466-4.658c2.795 4.192 2.329-1.397 0.466-4.192 3.261 2.795 4.192 5.124 5.589 6.987 0-1.397 3.726-6.521 3.727-0.466l0.931-6.055c1.397-0.932 1.863 5.124 3.261 0.931 1.397-4.192 4.192-0.932 6.987-2.329-0.932 1.863-0.466 5.59 2.794 3.261l3.727-3.261c2.329 5.59 6.055 3.261 7.918 2.329 20.495-13.042 40.99-28.413 60.553-43.784l-0.466 6.055 2.329-7.453c2.329 2.329 4.192 0.466 5.124-0.931 2.795-4.658 6.521-9.316 12.577-13.508-7.453 20.029-16.303 35.866-27.482 48.908l-4.658 5.59c0 3.261-0.932 7.453-4.658 7.918-1.863 0.466-5.59-0.932-8.384 1.863-1.397 1.863 3.261 5.59-0.466 2.795-3.261-2.329-6.521 0-10.248 0.932-2.795 0.932 1.863 3.726 2.795 5.589 0.932 1.863 1.863 3.726 1.398 6.056l-5.124-5.59c-6.055 3.261-9.782 9.316-14.906 13.974-2.329 1.863-1.397 5.124-1.397 7.918-3.261 0-6.987-0.932-8.85 0.932-1.397 1.863-0.932 4.658-0.932 7.453-4.658-0.466-5.124-7.453-9.315-6.056-4.192 0.932-8.85 1.397-12.577 3.727 2.795 5.59-4.658 2.329-3.726 3.26-6.987-4.192-13.042-7.453-20.495-4.658-15.837-5.124-35.4-2.795-49.84-0.931 0-2.329 0.466-4.658-0.466-5.124-0.932 2.329-3.726 1.397-3.26 1.397-8.85-6.055-17.7-9.782-27.016-14.905-8.384 0.932-16.303-3.261-18.632-5.59-6.521-6.055-13.974-2.795-20.029-4.192-13.042-3.261-17.7-16.769-19.098-26.084-0.932-4.658-4.658-6.521-6.055-6.056-6.055-19.563-15.371-37.263-22.824-55.429-1.863-4.658-1.397-9.316-1.397-14.44 2.329 0.932 4.658 0.466 4.192-2.794-2.329-15.371-7.918-27.016-13.974-38.195 3.261-15.837 3.726-34.469 11.179-48.443 6.521-12.576 18.632-19.098 27.016-29.811 2.795-3.726 2.795-8.85 5.59-12.11 9.316-9.316 18.632-19.098 28.879-27.482 4.658-3.726 10.247 0 17.234-1.397 2.329-8.384 11.645-15.837 20.495-13.508 3.726 0.932 11.179-8.85 13.508-9.782 3.726-1.397 1.863 3.726 1.863 6.987 8.85-6.987 20.961-10.713 32.14-14.906" fill="#fa4238" fill-rule="nonzero" stroke="none" stroke-width="1" stroke-linecap="butt" stroke-linejoin="miter" stroke-miterlimit="10" stroke-dasharray="" stroke-dashoffset="0" font-family="none" font-weight="none" font-size="none" text-anchor="none" style="mix-blend-mode: normal" data-fill-palette-color="tertiary"></path></g><g transform="matrix(1,0,0,1,70.11333369791694,90)"><svg viewBox="0 0 179.77333260416611 180" height="180" width="179.77333260416611"><g><svg viewBox="0 0 179.77333260416611 180" height="180" width="179.77333260416611"><g><svg viewBox="0 0 192 192.24208340230265" height="180" width="179.77333260416611"><g transform="matrix(1,0,0,1,0,99.88236739081938)"><svg viewBox="0 0 192 92.35971601148327" height="92.35971601148327" width="192"><g><svg viewBox="0 0 192 92.35971601148327" height="92.35971601148327" width="192"><g><svg viewBox="0 0 192 60.44784688995216" height="60.44784688995216" width="192"><g transform="matrix(1,0,0,1,0,0)"><svg width="192" viewBox="1.7999999523162842 -36.29999923706055 156.72999572753906 49.349998474121094" height="60.44784688995216" data-palette-color="#fa4238"><path d="M20.85 0.4Q19.9-0.35 19.33-1.25 18.75-2.15 18.25-3.6L18.25-3.6Q17.25-1.65 15.28-0.58 13.3 0.5 10.5 0.5L10.5 0.5Q6.55 0.5 4.17-1.6 1.8-3.7 1.8-7.3L1.8-7.3Q1.8-11.1 4.48-13.2 7.15-15.3 12.05-15.3L12.05-15.3 17.85-15.3 17.85-17.1Q17.85-20.1 16.55-21.55 15.25-23 12.55-23L12.55-23Q10.55-23 8.45-22.28 6.35-21.55 4.7-20.3L4.7-20.3 3.35-22.5Q5.2-24.05 7.63-24.88 10.05-25.7 12.6-25.7L12.6-25.7Q16.65-25.7 18.75-23.63 20.85-21.55 20.85-17.65L20.85-17.65 20.85-7.2Q20.85-3.35 22.8-1.25L22.8-1.25 20.85 0.4ZM10.55-2.2Q13.9-2.2 15.88-4.05 17.85-5.9 17.85-8.85L17.85-8.85 17.85-12.6 12.75-12.6Q8.5-12.6 6.65-11.38 4.8-10.15 4.8-7.35L4.8-7.35Q4.8-4.85 6.3-3.53 7.8-2.2 10.55-2.2L10.55-2.2ZM28.75-36.3L31.75-36.3 31.75-21.35Q33.3-23.5 35.35-24.5 37.4-25.5 40.1-25.5L40.1-25.5Q44.15-25.5 46.17-23.38 48.2-21.25 48.2-17.35L48.2-17.35 48.2 0 45.2 0 45.2-16.8Q45.2-19.55 43.85-21.13 42.5-22.7 39.8-22.7L39.8-22.7Q37.4-22.7 35.5-21.45 33.6-20.2 31.75-17.7L31.75-17.7 31.75 0 28.75 0 28.75-36.3ZM65.9-25.5Q67.4-25.5 68.9-25.05L68.9-25.05 68.9-22.25Q67.45-22.6 66-22.6L66-22.6Q63.45-22.6 61.85-21.35L61.85-21.35Q60.25-20.1 59-17.8L59-17.8 59 0 56 0 56-17.5Q56-21.45 53.9-23.3L53.9-23.3 55.9-25.3Q56.8-24.75 57.6-23.65 58.4-22.55 58.75-21.2L58.75-21.2Q60.15-23.5 61.55-24.35L61.55-24.35Q63.3-25.5 65.9-25.5L65.9-25.5ZM83.59 0.5Q80.04 0.5 77.27-1.15 74.49-2.8 72.94-5.75 71.39-8.7 71.39-12.45L71.39-12.45Q71.39-16.2 72.97-19.18 74.54-22.15 77.32-23.83 80.09-25.5 83.64-25.5L83.64-25.5Q87.14-25.5 89.92-23.83 92.69-22.15 94.27-19.2 95.84-16.25 95.84-12.5L95.84-12.5Q95.84-8.75 94.27-5.8 92.69-2.85 89.92-1.18 87.14 0.5 83.59 0.5L83.59 0.5ZM83.64-2.2Q87.79-2.2 90.32-5.05 92.84-7.9 92.84-12.5L92.84-12.5Q92.84-15.55 91.69-17.88 90.54-20.2 88.44-21.5 86.34-22.8 83.64-22.8L83.64-22.8Q80.89-22.8 78.79-21.5 76.69-20.2 75.54-17.82 74.39-15.45 74.39-12.45L74.39-12.45Q74.39-9.45 75.54-7.13 76.69-4.8 78.79-3.5 80.89-2.2 83.64-2.2L83.64-2.2ZM101.89-17.65Q101.89-21.5 99.84-23.55L99.84-23.55 101.74-25.4Q103.94-23.85 104.54-20.9L104.54-20.9Q106.19-23.25 108.24-24.38 110.29-25.5 113.19-25.5L113.19-25.5Q117.09-25.5 119.27-23.4 121.44-21.3 121.39-17.35L121.39-17.35 121.24 0 118.34 0 118.39-16.8Q118.39-22.8 112.94-22.8L112.94-22.8Q110.39-22.8 108.62-21.58 106.84-20.35 104.89-17.7L104.89-17.7 104.89 0 101.89 0 101.89-17.65ZM128.89 0L128.89-25.05 131.89-25.05 131.89 0 128.89 0ZM130.29-28.25Q129.44-28.25 128.81-28.88 128.19-29.5 128.19-30.35L128.19-30.35Q128.19-31.25 128.81-31.88 129.44-32.5 130.29-32.5L130.29-32.5Q131.19-32.5 131.81-31.88 132.44-31.25 132.44-30.35L132.44-30.35Q132.44-29.5 131.81-28.88 131.19-28.25 130.29-28.25L130.29-28.25ZM139.44 10.6Q142.23 10.6 143.69 9.55L143.69 9.55Q144.38 9.1 144.94 8.33 145.48 7.55 145.78 6.6L145.78 6.6 147.69 0.65 136.73-25.15 139.88-25.15 148.88-3.05 155.44-25.15 158.53-25.15 148.38 7.5Q147.48 10.2 145.44 11.6L145.44 11.6Q143.28 13.05 139.78 13.05L139.78 13.05 139.44 10.6Z" opacity="1" transform="matrix(1,0,0,1,0,0)" fill="#fa4238" class="undefined-text-0" data-fill-palette-color="primary" id="text-0"></path></svg></g></svg></g><g transform="matrix(1,0,0,1,0,69.26863849952154)"><svg viewBox="0 0 192 23.091077511961725" height="23.091077511961725" width="192"><g transform="matrix(1,0,0,1,0,0)"><svg width="192" viewBox="0.26440680027008057 -36.20320510864258 301.7555847167969 36.29081344604492" height="23.091077511961725" data-palette-color="#e12517"><path d="M9.75 0L9.75 0Q8.8 0 8.05-0.5 7.3-1 7.05-1.8L7.05-1.8Q6.3-4.45 3.7-12.25L3.7-12.25Q1.45-18.95 0.4-23.3L0.4-23.3Q0-24.45 0.78-25.43 1.55-26.4 2.9-26.4L2.9-26.4Q4.8-26.4 5.3-24.4L5.3-24.4Q6.65-19.45 8.55-13.85L8.55-13.85Q9.3-11.5 9.55-9.95L9.55-9.95 10.7-13.45 11.4-15.55Q11.35-15.4 12.5-19L12.5-19Q12.8-19.9 13.1-20.88 13.4-21.85 13.75-22.85L13.75-22.85Q14.6-25.2 16.75-25.2L16.75-25.2Q17.8-25.2 18.48-24.6 19.15-24 19.65-22.6L19.65-22.6Q22-16 24.15-8.55L24.15-8.55 25.25-13.05Q25.65-14.85 26.15-16.95L26.15-16.95Q27.15-21.15 28.1-24.4L28.1-24.4Q28.35-25.35 29-25.9 29.65-26.45 30.45-26.45L30.45-26.45Q31.7-26.45 32.4-25.5 33.1-24.55 32.7-23.25L32.7-23.25Q32.65-23.15 32.3-21.45L32.3-21.45Q31.75-19 31.05-16.45L31.05-16.45 29.95-12.45Q28.05-5.35 27.2-2.85L27.2-2.85Q26.1 0 24.15 0L24.15 0Q23.1 0 22.3-0.65 21.5-1.3 21.1-2.45L21.1-2.45 20.3-4.9Q19.15-8.3 16.3-16.95L16.3-16.95 15.45-13.95Q13.15-6.05 12.65-3.8L12.65-3.8Q12.2-1.9 11.45-0.95 10.7 0 9.75 0L9.75 0ZM84.84-2.4L84.84-2.4Q84.79-1.35 84.04-0.65 83.29 0.05 82.27 0.03 81.24 0 80.54-0.75 79.84-1.5 79.84-2.5L79.84-2.5Q79.84-2.55 80.14-7.2L80.14-7.2Q80.44-12.3 80.24-14.95L80.24-14.95Q79.79-21.2 75.64-21.5L75.64-21.5Q73.44-21.65 72.02-20.83 70.59-20 69.24-17.95L69.24-17.95Q69.14-17.8 68.84-17.25L68.84-17.25Q69.19-6.45 69.19-2.45L69.19-2.45Q69.19-1.4 68.47-0.68 67.74 0.05 66.69 0.05 65.64 0.05 64.92-0.68 64.19-1.4 64.19-2.45L64.19-2.45Q64.19-4.75 63.79-18L63.79-18Q63.49-27.95 63.69-33.8L63.69-33.8Q63.74-34.8 64.49-35.52 65.24-36.25 66.27-36.2 67.29-36.15 68.02-35.4 68.74-34.65 68.69-33.6L68.69-33.6Q68.64-32.25 68.64-23.15L68.64-23.15Q71.84-26.85 76.14-26.5L76.14-26.5Q84.44-25.8 85.24-15.35L85.24-15.35Q85.39-12.45 85.32-10.3 85.24-8.15 85.04-5.55 84.84-2.95 84.84-2.4L84.84-2.4ZM131.64-0.35L131.64-0.35Q125.04 1.25 121.09-3L121.09-3Q117.94-6.25 117.19-11.35L117.19-11.35Q116.64-15.35 118.14-18.95L118.14-18.95Q119.94-23.55 123.84-25.75L123.84-25.75Q124.64-26.2 125.84-26.4L125.84-26.4Q125.89-26.4 126.54-26.45L126.54-26.45Q126.79-26.5 126.94-26.55L126.94-26.55Q127.69-26.7 128.44-26.4L128.44-26.4Q128.64-26.4 129.39-26.38 130.14-26.35 130.39-26.33 130.64-26.3 131.26-26.23 131.89-26.15 132.29-26.05L132.29-26.05 133.24-25.7Q133.84-25.5 134.39-25.2 134.94-24.9 135.59-24.5L135.59-24.5Q138.84-22.3 140.09-18.32 141.34-14.35 140.74-11.9L140.74-11.9Q140.29-9.2 139.14-6.88 137.99-4.55 135.96-2.75 133.94-0.95 131.64-0.35L131.64-0.35ZM130.09-5.55L130.09-5.55Q132.24-5.85 133.76-7.78 135.29-9.7 135.76-11.85 136.24-14 135.41-16.57 134.59-19.15 132.79-20.3L132.79-20.3Q132.24-20.7 131.89-20.88 131.54-21.05 131.06-21.18 130.59-21.3 130.31-21.3 130.04-21.3 129.14-21.35 128.24-21.4 127.54-21.45L127.54-21.45Q127.39-21.45 127.19-21.5L127.19-21.5Q126.64-21.45 126.59-21.45L126.59-21.45 126.24-21.35Q124.04-20.15 122.86-17.53 121.69-14.9 122.19-12.1L122.19-12.1Q122.74-8.7 124.64-6.95L124.64-6.95Q126.69-5.05 130.09-5.55L130.09-5.55ZM187.13-0.8L187.13-0.8Q185.33-0.1 183.06 0 180.78 0.1 178.83-0.53 176.88-1.15 175.38-2.45L175.38-2.45Q172.78-4.6 172.03-7.8 171.28-11 171.98-13.55 172.68-16.1 174.11-18.53 175.53-20.95 177.21-22.63 178.88-24.3 181.08-25.45 183.28-26.6 185.68-26.58 188.08-26.55 190.73-25.25L190.73-25.25Q191.13-25.05 191.61-24.65 192.08-24.25 192.43-23.95L192.43-23.95 193.08-23.3Q193.38-23 193.38-22.95L193.38-22.95Q194.18-22.25 194.23-21.15L194.23-21.15Q194.88-18.15 195.08-14.85 195.28-11.55 195.21-8.65 195.13-5.75 195.28-2.5L195.28-2.5Q195.33-1.5 194.63-0.75 193.93 0 192.88 0.05 191.83 0.1 191.08-0.6 190.33-1.3 190.28-2.3L190.28-2.3 190.28-3.05Q188.78-1.5 187.13-0.8L187.13-0.8ZM184.88-5.3L184.88-5.3Q185.63-5.5 186.08-5.7 186.53-5.9 187.21-6.3 187.88-6.7 188.63-7.3 189.38-7.9 189.98-8.8L189.98-8.8Q190.08-8.9 190.23-9L190.23-9Q190.23-15.75 189.38-19.85L189.38-19.85Q189.23-20.05 189.06-20.23 188.88-20.4 188.81-20.5 188.73-20.6 188.61-20.68 188.48-20.75 188.33-20.85L188.33-20.85Q185.93-22.15 183.28-20.93 180.63-19.7 178.63-16.35L178.63-16.35Q176.63-12.95 176.66-10.43 176.68-7.9 178.58-6.25L178.58-6.25Q179.73-5.3 181.43-5.05 183.13-4.8 184.88-5.3L184.88-5.3ZM258.67-2.2L258.67-2.2Q258.62-3.1 258.55-3.88 258.47-4.65 258.45-5.03 258.42-5.4 258.4-5.68 258.37-5.95 258.37-6.3L258.37-6.3 258.37-9.15Q258.37-9.95 258.45-11.98 258.52-14 258.5-15.4 258.47-16.8 258.22-18.05L258.22-18.05Q257.92-19.8 257.17-20.58 256.42-21.35 254.87-21.35L254.87-21.35Q251.42-21.3 247.97-17.15L247.97-17.15Q248.12-15.65 248.12-11.35L248.12-11.35Q248.12-8.2 248.27-2.55L248.27-2.55Q248.32-1.55 247.6-0.8 246.87-0.05 245.85 0 244.82 0.05 244.07-0.68 243.32-1.4 243.27-2.45L243.27-2.45Q243.12-8.1 243.12-11.35L243.12-11.35 243.12-13.85Q243.12-14.1 243.1-14.9 243.07-15.7 243.05-16.07 243.02-16.45 242.95-17.07 242.87-17.7 242.8-18.18 242.72-18.65 242.57-19.1L242.57-19.1Q242.17-20.5 241.47-21.05L241.47-21.05Q240.72-21.65 239.22-21.5L239.22-21.5Q237.57-21.35 236.37-20.6L236.37-20.6Q235.22-19.85 234.02-18.2L234.02-18.2Q233.77-17.9 233.47-17.65L233.47-17.65Q233.67-7.65 233.47-2.4L233.47-2.4Q233.42-1.35 232.67-0.65 231.92 0.05 230.87 0 229.82-0.05 229.12-0.8 228.42-1.55 228.47-2.6L228.47-2.6Q228.57-8.15 228.57-9.73 228.57-11.3 228.45-16.98 228.32-22.65 228.32-24.25L228.32-24.25Q228.32-25 229.05-25.75 229.77-26.5 230.77-26.5 231.77-26.5 232.57-25.88 233.37-25.25 233.32-23.55L233.32-23.55Q235.57-26.2 238.82-26.5L238.82-26.5Q242.27-26.8 244.57-24.95L244.57-24.95Q245.77-24 246.72-22.3L246.72-22.3Q249.82-26.2 254.87-26.5L254.87-26.5Q258.57-26.55 260.82-24.2L260.82-24.2Q262.57-22.15 263.17-18.95L263.17-18.95Q263.42-17.45 263.47-15.68 263.52-13.9 263.45-11.68 263.37-9.45 263.37-9.15L263.37-9.15 263.37-6.4Q263.37-6.15 263.4-5.9 263.42-5.65 263.45-5.33 263.47-5 263.52-4.25 263.57-3.5 263.67-2.6L263.67-2.6Q263.72-1.55 263.05-0.78 262.37 0 261.35 0.08 260.32 0.15 259.55-0.53 258.77-1.2 258.67-2.2L258.67-2.2ZM296.52-2.4L296.52-2.4Q296.42-6.15 296.54-13.9 296.67-21.65 296.67-24.05L296.67-24.05Q296.67-25.1 297.39-25.83 298.12-26.55 299.17-26.55 300.22-26.55 300.94-25.83 301.67-25.1 301.67-24.05L301.67-24.05Q301.67-21.65 301.54-13.95 301.42-6.25 301.52-2.5L301.52-2.5Q301.52-1.45 300.82-0.7 300.12 0.05 299.07 0.05 298.02 0.05 297.27-0.65 296.52-1.35 296.52-2.4L296.52-2.4ZM301.17-35.2L301.17-35.2Q302.02-34.35 302.02-33.1 302.02-31.85 301.17-31 300.32-30.15 299.07-30.15 297.82-30.15 296.97-31 296.12-31.85 296.12-33.1 296.12-34.35 296.97-35.2 297.82-36.05 299.09-36.08 300.37-36.1 301.17-35.2L301.17-35.2Z" opacity="1" transform="matrix(1,0,0,1,0,0)" fill="#e12517" class="undefined-text-1" data-fill-palette-color="secondary" id="text-1"></path></svg></g></svg></g></svg></g></svg></g><g transform="matrix(1,0,0,1,36.672,0)"><svg viewBox="0 0 118.656 91.06157578125" height="91.06157578125" width="118.656"><g><svg xmlns="http://www.w3.org/2000/svg" xmlns:sodipodi="http://sodipodi.sourceforge.net/DTD/sodipodi-0.dtd" viewBox="5 15.930233001708984 90 69.06976318359375" x="0" y="0" height="91.06157578125" width="118.656" class="icon-icon-0" data-fill-palette-color="accent" id="icon-0"><path d="M15.465 15.93C9.685 15.93 5 20.616 5 26.395L5 74.535C5 80.315 9.685 85 15.465 85l69.07 0C90.315 85 95 80.315 95 74.535L95 26.395C95 20.616 90.315 15.93 84.535 15.93z m0 3.14l69.07 0c4.046 0 7.326 3.28 7.325 7.325l0 2.864-83.72 0 0-2.864c0-4.046 3.28-7.326 7.325-7.325z m-0.687 14.781l5.396 5.462-5.396 5.428-2.714-1.569 4.022-3.859-4.022-3.892z" color="#393332" fill="#393332" data-fill-palette-color="accent"></path></svg></g></svg></g><g></g></svg></g></svg></g></svg></g></svg></g><defs></defs></svg><rect width="320" height="360" fill="none" stroke="none" visibility="hidden"></rect></g></svg></g></svg>